<svg xmlns="http://www.w3.org/2000/svg" xmlns:xlink="http://www.w3.org/1999/xlink" width="176" height="176" viewBox="0 0 176 176">
  <defs>
    <clipPath id="clip-path">
      <rect id="Rect치ngulo_232" data-name="Rect치ngulo 232" width="117.331" height="99.246" fill="#fff"/>
    </clipPath>
  </defs>
  <g id="Grupo_426" data-name="Grupo 426" transform="translate(-64 -465)">
    <rect id="Rect치ngulo_280" data-name="Rect치ngulo 280" width="176" height="176" rx="28" transform="translate(64 465)" fill="#9e35f2"/>
    <g id="Grupo_332" data-name="Grupo 332" transform="translate(93 503)">
      <g id="Grupo_324" data-name="Grupo 324" transform="translate(0 0)" clip-path="url(#clip-path)">
        <path id="Trazado_1014" data-name="Trazado 1014" d="M58.454,99.233q-21.636,0-43.274,0C5.581,99.222.019,93.7.011,84.175q-.02-25.645,0-51.289c.011-9.208,5.548-14.727,14.778-14.772,5.129-.024,10.26-.082,15.385.036,1.843.041,2.737-.582,3.065-2.37.307-1.675.8-3.316,1.234-4.965C36.309,3.876,41.2.072,48.437.032q10.257-.059,20.516,0C76.161.08,81.009,3.907,82.852,10.9c1.9,7.208,1.9,7.208,9.492,7.208,3.739,0,7.482-.071,11.218.021,8.014.2,13.678,5.848,13.712,13.875q.111,26.6,0,53.211c-.034,8.285-5.869,13.971-14.264,14-14.852.054-29.7.016-44.557.016m.082-8.917q21.8,0,43.61-.005c4.613-.005,6.185-1.564,6.189-6.139q.02-25.491,0-50.984c0-4.591-1.593-6.214-6.121-6.234-6.626-.029-13.254,0-19.88-.012-3.939-.009-5-.856-5.976-4.751-.753-3-1.457-6.01-2.2-9.01-.674-2.72-2.336-4.241-5.229-4.239-6.947,0-13.895-.018-20.842.011-2.845.012-4.561,1.448-5.153,4.271-.614,2.923-1.318,5.824-1.97,8.739-.912,4.08-1.975,4.973-6.085,4.981-6.52.013-13.039-.011-19.559.009-4.795.014-6.344,1.56-6.347,6.323q-.014,25.171,0,50.342c0,5.253,1.417,6.693,6.6,6.7q21.484.012,42.967,0" transform="translate(0 0.001)" fill="#fff"/>
        <path id="Trazado_1015" data-name="Trazado 1015" d="M72.407,49.883A22.457,22.457,0,1,1,49.728,27.519,22.391,22.391,0,0,1,72.407,49.883m-8.8-.034c-.1-7.352-6.571-13.7-13.825-13.561-7.352.141-13.708,6.693-13.481,13.9A13.984,13.984,0,0,0,49.956,63.578,14,14,0,0,0,63.6,49.849" transform="translate(8.703 8.712)" fill="#fff"/>
        <path id="Trazado_1016" data-name="Trazado 1016" d="M71.754,36.246c-.854,0-1.715.072-2.562-.012-2.487-.25-3.9-1.634-3.971-4.158A3.977,3.977,0,0,1,69.19,27.59a32.662,32.662,0,0,1,4.8-.038c2.742.137,4.55,1.914,4.557,4.356.008,2.411-1.86,4.208-4.551,4.347-.746.039-1.5.008-2.243.008v-.017" transform="translate(20.645 8.7)" fill="#fff"/>
      </g>
    </g>
  </g>
</svg>
