<svg xmlns="http://www.w3.org/2000/svg" xmlns:xlink="http://www.w3.org/1999/xlink" width="65.841" height="38.147" viewBox="0 0 65.841 38.147">
  <defs>
    <clipPath id="clip-path">
      <rect id="Rectángulo_242" data-name="Rectángulo 242" width="65.841" height="38.147" fill="none"/>
    </clipPath>
  </defs>
  <g id="Grupo_355" data-name="Grupo 355" clip-path="url(#clip-path)">
    <path id="Trazado_1031" data-name="Trazado 1031" d="M15.68,23.309c15.857,0,29.88-.024,43.9.02,2.787.009,5.681-.024,6.17-3.451.621-4.364-2.148-5.575-5.994-5.562-14.211.048-28.423.02-44.1.02,2.486-2.559,4.22-4.292,5.894-6.081,2.1-2.25,2.539-4.755.194-6.971-2.14-2.021-4.513-1.494-6.517.459-4.508,4.4-8.975,8.853-13.447,13.3-2.512,2.5-2.256,5,.082,7.453,4.352,4.56,8.692,9.131,13.09,13.647,2.106,2.163,4.67,2.855,7.023.682,2.41-2.227,1.642-4.732-.359-6.958-1.568-1.739-3.143-3.47-5.935-6.555" transform="translate(0 0)" fill="#fff"/>
  </g>
</svg>
