<svg xmlns="http://www.w3.org/2000/svg" xmlns:xlink="http://www.w3.org/1999/xlink" width="34.97" height="58.55" viewBox="0 0 34.97 58.55">
  <defs>
    <clipPath id="clip-path">
      <rect id="Rectángulo_243" data-name="Rectángulo 243" width="34.97" height="58.55" fill="#9e35f2"/>
    </clipPath>
  </defs>
  <g id="Grupo_363" data-name="Grupo 363" transform="translate(0 0)">
    <g id="Grupo_362" data-name="Grupo 362" transform="translate(0 0)" clip-path="url(#clip-path)">
      <path id="Trazado_1043" data-name="Trazado 1043" d="M34.936,29.34c.266,2.062-1.028,3.466-2.283,4.713C25.289,41.37,17.834,48.595,10.439,55.881c-2.752,2.711-5.908,3.947-8.811.84C-1.146,53.752-.09,50.507,2.646,47.8,7.809,42.7,12.836,37.458,18.2,32.585c2.816-2.56,2.783-4.191,0-6.724C12.836,20.969,7.8,15.721,2.586,10.653c-2.839-2.762-3.611-6-.855-8.906C4.24-.9,7.376-.365,9.989,2.18Q21.419,13.322,32.807,24.5a6.238,6.238,0,0,1,2.13,4.837" transform="translate(-0.001 0)" fill="#9e35f2"/>
    </g>
  </g>
</svg>
