<svg id="x_Blanca" data-name="x Blanca" xmlns="http://www.w3.org/2000/svg" width="62.441" height="62.44" viewBox="0 0 62.441 62.44">
  <path id="Trazado_1017" data-name="Trazado 1017" d="M488.9,60.222a3.391,3.391,0,0,1,0,4.8l-4.66,4.66a3.393,3.393,0,0,1-4.8,0l-20.77-20.77L437.9,69.679a3.393,3.393,0,0,1-4.8,0l-4.66-4.66a3.391,3.391,0,0,1,0-4.8l20.77-20.77-20.77-20.77a3.391,3.391,0,0,1,0-4.8l4.66-4.659a3.391,3.391,0,0,1,4.8,0L458.669,30l20.77-20.77a3.391,3.391,0,0,1,4.8,0l4.66,4.659a3.391,3.391,0,0,1,0,4.8l-20.77,20.77Z" transform="translate(-427.449 -8.232)" fill="#fff"/>
</svg>
